<svg width="48" height="48" viewBox="0 0 48 48" fill="none" xmlns="http://www.w3.org/2000/svg">
<path d="M24 43.3467C24 43.3467 21.9393 39.3647 14.752 25.4193C13.3333 22.6667 11.54 20.2813 11.54 17.07C11.54 10.1887 17.118 4.61067 23.9987 4.61067V9.96267C23.9987 9.96267 17.0267 10.3093 17.0267 16.8947C17.0267 23.48 24 24.0653 24 24.0653V43.3467Z" fill="#FF76C2"/>
<path d="M23.9827 43.3447C23.9827 43.3447 25.9813 39.3333 33.2307 25.4167C34.606 22.776 36.442 20.2793 36.442 17.0673C36.442 10.186 30.864 4.608 23.9833 4.608L23.794 9.96267C23.794 9.96267 31.2453 10.1407 31.1327 17.1193C31.02 24.098 23.794 24.0647 23.794 24.0647L23.9827 43.3447Z" fill="#FF76C2"/>
<path d="M24.552 5.03133C24.552 5.03133 31.052 7.72199 32.4447 15.222C33.804 22.542 26.3334 35.3333 24.3334 41.778C22.3334 48.2227 36.4607 18.6667 36.4607 18.6667C36.4607 18.6667 36.7707 4.85399 24.552 5.03133Z" fill="#FFD3EC"/>
<path d="M24.0007 24.0653C27.895 24.0653 31.052 20.9083 31.052 17.014C31.052 13.1197 27.895 9.96266 24.0007 9.96266C20.1063 9.96266 16.9493 13.1197 16.9493 17.014C16.9493 20.9083 20.1063 24.0653 24.0007 24.0653Z" stroke="#D85092" stroke-width="1.33333" stroke-miterlimit="10" stroke-linecap="round" stroke-linejoin="round"/>
<path d="M24 43.3467C24 43.3467 21.9393 39.3647 14.752 25.4193C13.3333 22.6667 11.54 20.2813 11.54 17.07C11.54 10.1887 17.118 4.61067 23.9987 4.61067M24.0013 43.3447C24.0013 43.3447 26 39.3333 33.2493 25.4167C34.6253 22.776 36.4607 20.2793 36.4607 17.0673C36.4607 10.186 30.8827 4.608 24.002 4.608" stroke="#D85092" stroke-width="1.33333" stroke-miterlimit="10" stroke-linecap="round" stroke-linejoin="round"/>
</svg>
